HIERARCHY
ROOT Hips
{
	OFFSET 0.00000 0.00000 0.00000
	CHANNELS 6 Xposition Yposition Zposition Zrotation Yrotation Xrotation 
	JOINT LHipJoint
	{
		OFFSET 0 0 0
		CHANNELS 3 Zrotation Yrotation Xrotation
		JOINT LeftHip
		{
			OFFSET 3.13874 -1.57224 1.49786
			CHANNELS 3 Zrotation Yrotation Xrotation
			JOINT LeftKnee
			{
				OFFSET 2.10955 -5.79594 0.00000
				CHANNELS 3 Zrotation Yrotation Xrotation
				JOINT LeftAnkle
				{
					OFFSET 2.41843 -6.64458 0.00000
					CHANNELS 3 Zrotation Yrotation Xrotation
					JOINT LeftToe
					{
						OFFSET 0.04713 -0.12948 1.66229
						CHANNELS 3 Zrotation Yrotation Xrotation
						End Site
						{
							OFFSET 0.00000 -0.00000 0.85167
						}
					}
				}
			}
		}
	}
	JOINT RHipJoint
	{
		OFFSET 0 0 0
		CHANNELS 3 Zrotation Yrotation Xrotation
		JOINT RightHip
		{
			OFFSET -3.13988 -1.57224 1.49786
			CHANNELS 3 Zrotation Yrotation Xrotation
			JOINT RightKnee
			{
				OFFSET -2.15006 -5.90725 0.00000
				CHANNELS 3 Zrotation Yrotation Xrotation
				JOINT RightAnkle
				{
					OFFSET -2.34496 -6.44273 0.00000
					CHANNELS 3 Zrotation Yrotation Xrotation
					JOINT RightToe
					{
						OFFSET -0.08699 -0.23900 1.55223
						CHANNELS 3 Zrotation Yrotation Xrotation
						End Site
						{
							OFFSET -0.00000 -0.00000 0.80281
						}
					}
				}
			}
		}
	}
	JOINT lowerback
	{
		OFFSET 0 0 0
		CHANNELS 3 Zrotation Yrotation Xrotation
		JOINT Chest
		{
			OFFSET 0.01292 1.96517 -0.16495
			CHANNELS 3 Zrotation Yrotation Xrotation
			JOINT Chest2
			{
				OFFSET 0.02122 1.88666 0.19706
				CHANNELS 3 Zrotation Yrotation Xrotation
				JOINT lowerneck
				{
					OFFSET 0 0 0
					CHANNELS 3 Zrotation Yrotation Xrotation
					JOINT Neck
					{
						OFFSET -0.01683 1.81591 0.07903
						CHANNELS 3 Zrotation Yrotation Xrotation
						JOINT Head
						{
							OFFSET 0.00815 1.74013 -0.47700
							CHANNELS 3 Zrotation Yrotation Xrotation
							End Site
							{
								OFFSET -0.00204 1.83225 -0.16933
							}
						}
					}
				}
				JOINT LeftCollar
				{
					OFFSET 0 0 0
					CHANNELS 3 Zrotation Yrotation Xrotation
					JOINT LeftShoulder
					{
						OFFSET 3.38482 1.41533 0.19802
CHANNELS 3 Zrotation Xrotation Yrotation
						JOINT LeftElbow
						{
OFFSET 0 -4.327120 0.000000
CHANNELS 3 Zrotation Xrotation Yrotation
							JOINT LeftWrist
							{
OFFSET 0 -3.285870 -0.000000
CHANNELS 3 Zrotation Xrotation Yrotation
								JOINT lhand
								{
									OFFSET 0 0 0
CHANNELS 3 Zrotation Xrotation Yrotation
									JOINT LFingers
									{
OFFSET 0 -0.433160 -0.000000
CHANNELS 3 Zrotation Xrotation Yrotation
										End Site
										{
OFFSET 0 -0.349220 -0.000000
										}
									}
								}
								JOINT LThumb
								{
OFFSET 0 0.000000 0.000000
CHANNELS 3 Zrotation Xrotation Yrotation
									End Site
									{
OFFSET 0 -0.354560 0.354560
									}
								}
							}
						}
					}
				}
				JOINT RightCollar
				{
					OFFSET 0 0 0
					CHANNELS 3 Zrotation Yrotation Xrotation
					JOINT RightShoulder
					{
						OFFSET -3.09725 1.62858 -0.14144
CHANNELS 3 Zrotation Xrotation Yrotation
						JOINT RightElbow
						{
OFFSET 0 -4.291040 0.000000
CHANNELS 3 Zrotation Xrotation Yrotation
							JOINT RightWrist
							{
OFFSET 0 -3.227200 -0.000000
CHANNELS 3 Zrotation Xrotation Yrotation
								JOINT rhand
								{
									OFFSET 0 0 0
CHANNELS 3 Zrotation Xrotation Yrotation
									JOINT RFingers
									{
OFFSET 0 -0.543620 -0.000000
CHANNELS 3 Zrotation Xrotation Yrotation
										End Site
										{
OFFSET 0 -0.438280 -0.000000
										}
									}
								}
								JOINT RThumb
								{
OFFSET 0 0.000000 0.000000
CHANNELS 3 Zrotation Xrotation Yrotation
									End Site
									{
OFFSET 0 -0.444970 0.444970
									}
								}
							}
						}
					}
				}
			}
		}
	}
}
MOTION
Frames: 8
Frame Time: 0.008333333333333333
-9.454400 15.796300 1.192100 -113.016000 82.477000 -104.266000 0.000000 0.000000 0.000000 -15.426700 -6.755300 -29.793700 10.831100 17.851500 62.232000 -0.037700 10.256800 -13.990100 12.554800 -18.615500 -67.736800 0.000000 0.000000 0.000000 41.718600 12.579100 2.153200 -0.008000 0.577900 -1.587900 -1.109600 -8.906500 -24.981400 -0.025000 -1.020100 2.804100 0.363800 0.340700 10.508200 4.504200 1.797300 -11.655000 4.549800 1.462000 -19.697900 -1.568100 -2.496800 -15.169200 -4.601300 -0.412300 34.515500 -1.565400 -0.593200 14.404900 0.000000 0.000000 0.000000 0.472800 26.378500 -3.930800 20.170000 -30.846600 5.618200 31.188300 27.730000 -29.623600 0.000000 0.000000 0.000000 -7.125000 0.000000 0.000000 0.290500 63.591200 -0.131000 0.000000 0.000000 0.000000 -25.263000 18.150200 53.799100 -23.382600 -34.504500 -7.353900 -20.264900 -3.376500 16.608300 0.000000 0.000000 0.000000 7.125000 0.000000 -0.000000 7.256800 47.485300 -0.447300
-8.990155 15.764716 1.185583 -117.749130 83.069219 -109.291207 0.000000 0.000000 0.000000 -16.209726 -10.474718 -32.895172 9.270160 16.978074 57.019230 0.364915 8.226679 -17.253323 12.555126 -18.615563 -67.737818 0.000000 0.000000 0.000000 41.438014 10.934141 5.357686 -0.047447 1.404966 -3.863892 -1.106576 -9.388803 -25.333440 -0.007801 -0.569410 1.564651 -0.012203 0.394299 10.233445 4.250717 1.666325 -11.120374 4.473921 1.378178 -18.775156 -1.120449 -2.371368 -15.374822 -5.363046 -0.098443 34.298676 -1.902814 -0.508861 14.357247 0.000000 0.000000 0.000000 0.012165 26.071701 -4.695097 20.554737 -31.304945 5.816890 30.284007 27.015988 -29.504943 0.000000 0.000000 0.000000 -7.125000 0.000000 0.000000 -0.806397 63.215430 0.356420 0.000000 0.000000 0.000000 -25.284231 15.467755 54.794257 -23.090464 -34.187665 -7.189055 -20.107519 -2.795199 16.254866 0.000000 0.000000 0.000000 7.125000 0.000000 0.000000 7.317166 47.095386 -0.380298
-8.572566 15.742386 1.189948 -113.753397 81.937925 -105.163544 0.000000 0.000000 0.000000 -13.582176 -13.678467 -36.484987 7.247545 15.535806 49.802736 0.606964 8.110786 -19.840194 12.563446 -18.618802 -67.764036 0.000000 0.000000 0.000000 43.240248 10.698996 7.241223 -0.063372 1.623710 -4.466710 -1.100986 -10.050019 -25.820420 -0.002754 0.330910 -0.909150 1.271641 0.407476 10.313986 4.647201 1.982444 -10.821622 4.117058 1.380571 -18.445241 -1.135312 -2.104995 -15.671514 -5.722430 0.409143 33.968957 -1.960639 -0.351385 14.296486 0.000000 0.000000 0.000000 -0.667586 25.543988 -4.815144 20.479096 -31.215253 5.777554 29.647717 26.070999 -27.851812 0.000000 0.000000 0.000000 -7.125000 0.000000 0.000000 -0.894307 61.276930 0.354395 0.000000 0.000000 0.000000 -25.540138 13.020663 56.377578 -23.138459 -34.239919 -7.216035 -18.794214 -3.170407 17.247243 0.000000 0.000000 0.000000 7.125000 0.000000 0.000000 8.814802 47.938196 -0.644073
-8.170867 15.717180 1.190872 -109.811676 80.704571 -100.890801 0.000000 0.000000 0.000000 -10.031287 -17.010466 -38.700772 4.793432 13.143097 39.913921 0.528452 10.459988 -21.256861 12.592133 -18.629915 -67.853768 0.000000 0.000000 0.000000 45.127261 11.165668 8.568573 -0.056400 1.531800 -4.213403 -1.240452 -10.034472 -26.855966 -0.001467 -0.235228 0.646133 2.651007 0.495312 11.077068 4.987057 2.522731 -11.000497 3.605968 1.497034 -19.219880 -1.547684 -2.093322 -15.811818 -5.827543 0.634140 34.101380 -1.899415 -0.320337 14.404727 0.000000 0.000000 0.000000 -1.055503 25.911769 -4.986865 20.500892 -31.241071 5.788943 29.346564 27.504681 -29.301272 0.000000 0.000000 0.000000 -7.125000 0.000000 0.000000 -1.884739 62.744386 0.812787 0.000000 0.000000 0.000000 -25.544518 11.702709 57.610317 -23.432100 -34.557954 -7.381966 -19.572765 -2.546026 17.591420 0.000000 0.000000 0.000000 7.125000 0.000000 0.000000 8.172257 48.406105 -0.691036
-7.717595 15.663754 1.171641 -107.164035 80.283170 -97.871575 0.000000 0.000000 0.000000 -6.686409 -21.339831 -38.474623 2.366697 9.580964 27.639058 0.194348 13.413553 -21.216177 12.402189 -18.555539 -67.258079 0.000000 0.000000 0.000000 45.932641 10.739215 9.948862 -0.059220 1.569954 -4.318615 -1.329335 -9.628499 -27.190190 -0.001916 0.281399 -0.773015 3.332784 0.590282 11.329030 5.068131 2.866864 -11.201221 3.231374 1.578494 -19.663837 -1.464468 -1.961544 -15.825975 -6.021639 0.932791 34.399213 -1.951198 -0.198972 14.558093 0.000000 0.000000 0.000000 -1.414935 26.543522 -5.021558 20.464144 -31.197421 5.769822 29.727314 28.483337 -30.423450 0.000000 0.000000 0.000000 -7.125000 0.000000 0.000000 -1.950410 64.037913 0.899903 0.000000 0.000000 0.000000 -25.513684 11.048946 58.955776 -23.907779 -35.066437 -7.653468 -19.869517 -2.799059 17.103320 0.000000 0.000000 0.000000 7.125000 0.000000 0.000000 7.758276 47.943810 -0.566683
-7.233191 15.593248 1.142256 -103.875369 80.233517 -94.147742 0.000000 0.000000 0.000000 -2.028548 -27.609226 -37.020899 0.828214 5.792155 16.186650 -0.186002 17.238761 -22.674897 12.615991 -18.639033 -67.928347 0.000000 0.000000 0.000000 46.258595 10.101203 11.389232 -0.059945 1.579521 -4.345013 -1.421515 -8.822070 -27.259368 -0.011050 0.678447 -1.864482 3.656040 0.741595 11.345151 4.988150 3.172727 -11.450264 2.877922 1.669230 -20.005241 -1.488605 -1.783361 -15.909526 -5.966031 1.229591 34.622393 -1.880515 -0.063712 14.692336 0.000000 0.000000 0.000000 -1.627605 27.267474 -4.672973 20.326608 -31.033789 5.698779 29.830289 28.999992 -31.214726 0.000000 0.000000 0.000000 -7.125000 0.000000 0.000000 -2.235224 64.901887 1.076450 0.000000 0.000000 0.000000 -25.265387 10.871788 60.002473 -24.579405 -35.770963 -8.042790 -19.598898 -2.978427 17.419661 0.000000 0.000000 0.000000 7.125000 0.000000 0.000000 8.100034 48.232307 -0.649872
-6.719246 15.503223 1.104084 -98.893542 79.970186 -88.717216 0.000000 0.000000 0.000000 4.683439 -35.325426 -36.192489 0.251308 3.216897 8.884053 0.333284 19.579344 -30.104714 11.900404 -18.348276 -65.672842 0.000000 0.000000 0.000000 46.568550 8.990990 12.354264 -0.041017 1.306376 -3.592160 -1.526838 -7.454723 -27.080555 -0.072545 1.726867 -4.751718 4.134588 0.963724 11.026327 4.932685 3.581086 -11.637959 2.436298 1.785321 -20.023422 -1.271369 -1.625507 -15.873664 -6.017221 1.415578 34.613374 -1.907613 0.039500 14.685927 0.000000 0.000000 0.000000 -1.638149 27.655543 -4.017664 19.860072 -30.473309 5.460244 29.699774 29.263536 -31.499020 0.000000 0.000000 0.000000 -7.125000 0.000000 0.000000 -2.562571 65.163670 1.249613 0.000000 0.000000 0.000000 -24.974282 10.810901 61.353741 -25.042500 -36.247381 -8.315057 -19.927291 -3.771745 16.692984 0.000000 0.000000 0.000000 7.125000 0.000000 0.000000 7.597272 47.525865 -0.476704
-6.171196 15.425259 1.056286 -93.802593 79.681992 -83.278273 0.000000 0.000000 0.000000 6.711653 -37.658595 -36.151077 0.173026 2.679668 7.388192 0.788641 18.860766 -32.244100 11.591475 -18.211985 -64.687323 0.000000 0.000000 0.000000 46.617428 7.860039 13.078604 -0.013748 0.753873 -2.071976 -1.739401 -4.590160 -26.917452 -0.130813 2.331388 -6.422407 4.507398 1.186577 10.659295 4.867204 3.961025 -11.835733 2.054964 1.902955 -20.018411 -0.991325 -1.432120 -15.770348 -6.124299 1.661690 34.631740 -1.958462 0.172394 14.680945 0.000000 0.000000 0.000000 -1.698718 28.018604 -2.908052 19.327803 -29.823676 5.192969 29.361403 29.293384 -31.271903 0.000000 0.000000 0.000000 -7.125000 0.000000 0.000000 -2.872874 64.828906 1.378702 0.000000 0.000000 0.000000 -24.574884 11.348812 62.255387 -25.411580 -36.621689 -8.534271 -20.829142 -4.451264 14.760296 0.000000 0.000000 0.000000 7.125000 0.000000 0.000000 6.302161 45.627238 -0.098362
